<?xml version="1.0" encoding="UTF-8" standalone="no"?>
<!-- Created with Inkscape (http://www.inkscape.org/) -->

<svg
   width="210mm"
   height="180mm"
   viewBox="0 0 210 180"
   version="1.1"
   id="svg1"
   inkscape:version="1.3.1 (91b66b0783, 2023-11-16)"
   sodipodi:docname="intersoc.svg"
   xmlns:inkscape="http://www.inkscape.org/namespaces/inkscape"
   xmlns:sodipodi="http://sodipodi.sourceforge.net/DTD/sodipodi-0.dtd"
   xmlns="http://www.w3.org/2000/svg"
   xmlns:svg="http://www.w3.org/2000/svg">
  <sodipodi:namedview
     id="namedview1"
     pagecolor="#505050"
     bordercolor="#eeeeee"
     borderopacity="1"
     inkscape:showpageshadow="0"
     inkscape:pageopacity="0"
     inkscape:pagecheckerboard="0"
     inkscape:deskcolor="#505050"
     inkscape:document-units="mm"
     inkscape:zoom="0.80087682"
     inkscape:cx="334.63323"
     inkscape:cy="362.72744"
     inkscape:window-width="1920"
     inkscape:window-height="1137"
     inkscape:window-x="-8"
     inkscape:window-y="-8"
     inkscape:window-maximized="1"
     inkscape:current-layer="layer1" />
  <defs
     id="defs1" />
  <g
     inkscape:label="Layer 1"
     inkscape:groupmode="layer"
     id="layer1">
    <g
       id="g2"
       transform="matrix(0.31745496,0,0,0.31745496,-453.53613,51.243819)">
      <path
         class="cls-1"
         d="m 1958.44,105.44 c 0,-24.76 -20.17,-44.52 -45.29,-44.46 a 44.69,44.69 0 0 0 -44.88,44.89 c 0.12,24.49 20.26,44.27 45.1,44.3 a 44.8,44.8 0 0 0 45.07,-44.73 z m -73.09,-2.66 c 0.24,-7.65 4.67,-15.47 13.19,-21 1.42,-0.93 2.92,-1.5 4.49,-0.26 a 3.25,3.25 0 0 1 1.44,3 c -0.25,1.8 -1.77,2.51 -3.1,3.47 -12.66,9.13 -12,27.6 1.14,35.07 10.06,5.71 22.26,3 28.53,-6.42 6.27,-9.42 3.78,-21.8 -5.91,-28.74 -2.14,-1.53 -4,-3.06 -2.08,-5.66 1.92,-2.6 4.08,-1.25 6.15,0.17 10.77,7.45 15.09,21.46 10.16,33.1 a 28.16,28.16 0 0 1 -31.71,16.76 c -13.05,-2.73 -22.26,-13.89 -22.3,-29.49 z m 31.37,-17.64 v 11 c 0,2.15 -0.74,3.87 -3.15,4 -2.58,0.09 -3.64,-1.54 -3.65,-3.94 q 0,-10.75 0,-21.5 c 0,-2.4 1.1,-4.07 3.64,-4 2.36,0.08 3.17,1.79 3.16,4 -0.01,3.42 0,6.93 0,10.44 z"
         id="path23"
         style="fill:#c02527" />
      <path
         class="cls-5"
         d="m 1535.94,105 c 6.59,9.83 13.15,19.68 19.78,29.48 2.54,3.77 5.06,7.58 7.89,11.15 3.35,4.23 8.72,5.85 13,3.94 4.54,-2 5.52,-6.12 5.52,-10.62 q 0,-27.06 0,-54.13 c 0,-3.88 -0.78,-7.44 -4.55,-9.32 -6,-3 -11.63,1.13 -11.67,8.42 0,10.71 0,21.42 0,32.13 v 4 c -1.83,-0.1 -2.13,-1.37 -2.71,-2.23 Q 1550.69,99.43 1538.2,81 c -2,-3 -4.11,-5.67 -8.09,-6.2 -5.45,-0.73 -10,2.24 -11.11,7.58 a 22,22 0 0 0 -0.49,4.35 q 0,26.63 0,53.26 c 0,5.33 2.13,8.83 5.79,9.85 5.81,1.61 10.65,-2.26 10.73,-8.85 0.11,-10.27 0,-20.54 0,-30.81 v -4.82 z"
         id="path24"
         style="fill:#abaaaa" />
      <path
         class="cls-5"
         d="m 1772.79,116.28 c 7,-2.28 12.64,-5.74 15,-12.79 4.35,-13.09 -4.34,-26.45 -18.23,-27.16 -11.2,-0.58 -22.44,-0.37 -33.66,-0.19 -5.94,0.09 -8.94,3.29 -9,9.18 q -0.14,27.75 0,55.49 c 0,5.89 3.63,9.43 8.88,9.36 5.25,-0.07 8.5,-3.59 8.59,-9.64 0.08,-6.31 0.11,-12.63 0,-18.93 0,-2.37 0.78,-3 3.05,-2.95 5.24,0 9.63,1.66 12.57,6.08 4.47,6.72 8.74,13.58 13.15,20.34 1.83,2.81 4.16,4.89 7.8,5.1 6.87,0.39 10.73,-4.48 8.13,-10.81 a 57.78,57.78 0 0 0 -14.55,-21.28 c -0.52,-0.47 -0.98,-1.01 -1.73,-1.8 z m -18.37,-26.76 a 81.6,81.6 0 0 1 8.85,0.06 c 5.15,0.57 7.78,3.39 7.86,7.86 0.08,4.47 -2.06,6.69 -7.29,7.83 -4.23,0.93 -8.52,0.74 -12.79,0.75 -6.64,0 -6.64,0 -6.64,-6.76 0,-10.03 0,-10.03 10.01,-9.74 z"
         id="path25"
         style="fill:#abaaaa" />
      <path
         class="cls-1"
         d="m 1828.13,150.25 a 31.79,31.79 0 0 0 17.63,-4.51 c 8.12,-4.79 11.84,-12.07 11.17,-21.38 -0.63,-8.75 -6,-14 -13.78,-17.22 -6.13,-2.55 -12.68,-3.71 -19.05,-5.47 a 44.49,44.49 0 0 1 -5.77,-2.15 c -2.28,-1 -4.09,-2.48 -4,-5.23 0.09,-2.75 2,-4.18 4.1,-5.33 a 14.34,14.34 0 0 1 19.28,5.79 c 1.49,2.66 2.84,5.6 6.4,6.16 3.12,0.49 5.89,-0.18 7.92,-2.75 2.36,-3 2.15,-6.4 0.89,-9.62 -2.46,-6.33 -7.54,-10.14 -13.8,-12.09 a 43.4,43.4 0 0 0 -26.58,0.26 c -9.27,3 -14.81,10.47 -14.78,19.2 0.03,8.73 5.64,15.73 15.16,18.94 a 85.64,85.64 0 0 0 14,3.81 28.77,28.77 0 0 1 4.65,1.38 c 6,2 8.27,4.5 8,8.53 -0.27,4.03 -4.32,7.38 -9.68,8.25 -8.69,1.4 -13.49,-1.2 -17.21,-9.33 -2.62,-5.7 -5.45,-7.57 -9.94,-6.65 -4.06,0.83 -6.06,3.31 -6.14,7.38 -0.16,7.61 5.9,15.67 14.53,19.32 4.81,2.04 9.14,2.78 17,2.71 z"
         id="path26"
         style="fill:#c02527" />
      <path
         class="cls-5"
         d="m 1659.12,112.45 c 0,9 0,17.9 0,26.85 0,6.12 2.06,8.78 8.13,9.42 9.84,1.05 19.75,0.32 29.63,0.38 5,0 10,0.56 15,-0.43 3.68,-0.74 5.82,-3.08 5.71,-6.75 -0.11,-3.85 -2.49,-6.15 -6.37,-6.65 a 37.48,37.48 0 0 0 -4.86,-0.21 c -8.71,0 -17.43,-0.12 -26.13,0.05 -3,0.06 -4.3,-0.71 -4,-3.91 a 60,60 0 0 0 0,-9.67 c -0.23,-3 0.67,-4.08 3.88,-4 8.55,0.21 17.12,0 25.68,0 3.6,0 6.41,-1.34 7.52,-4.92 1.34,-4.38 -1.75,-8.19 -7,-8.32 q -13.05,-0.32 -26.13,-0.06 c -3.15,0.07 -4,-1 -3.94,-4 0,-10.83 -0.09,-10.82 10.65,-10.83 7.08,0 14.17,0 21.26,0 2.92,0 5.58,-0.66 7.27,-3.34 a 6.35,6.35 0 0 0 -5.27,-9.89 c -14.46,-0.27 -28.93,-0.25 -43.39,0 -5.08,0.08 -7.5,3.24 -7.57,9 -0.1,9.1 0,18.2 0,27.3 z"
         id="path27"
         style="fill:#abaaaa" />
      <path
         class="cls-1"
         d="m 2000.07,150.31 c 13.73,0 23.49,-4.33 29.94,-14.85 a 18.66,18.66 0 0 0 2.75,-9.15 c 0.15,-4 -1.22,-7 -5.34,-8 -4,-1 -7.34,-0.24 -9.13,4 -0.4,0.93 -0.87,1.84 -1.26,2.78 -3.21,7.81 -8.84,11.4 -17.2,11 -7.64,-0.39 -13.13,-4.55 -15.23,-12.38 -2.46,-9.14 -2.7,-18.39 2.35,-26.82 6.77,-11.3 22.38,-10.93 29,0.43 a 47.25,47.25 0 0 0 3.09,4.8 c 2.31,3 5.54,3.23 8.79,2.2 3.25,-1.03 4.65,-3.49 4.74,-6.72 0.15,-5 -2.11,-9.15 -5.47,-12.58 -9.5,-9.71 -21.34,-12.08 -34.18,-9.42 -12.84,2.66 -21.48,10.41 -25.4,23 -3.92,12.59 -3,24.89 3.87,36.38 6.87,11.49 17.61,15.44 28.68,15.33 z"
         id="path28"
         style="fill:#c02527" />
      <path
         class="cls-5"
         d="m 1620.06,76 c -7.69,0 -15.37,-0.09 -23,0 -5.82,0.09 -8.83,2.63 -8.8,7.07 0.03,4.44 3.22,7 8.81,7.17 a 81.3,81.3 0 0 0 9.75,0 c 3.75,-0.35 5,0.61 5,4.71 -0.29,15.12 -0.16,30.25 -0.1,45.37 0,6.72 4.12,10.58 10.15,9.79 4.53,-0.59 7.25,-4.23 7.27,-10 0,-14.24 0,-28.48 0,-42.73 0,-7 0,-7 7.31,-7 2.81,0 5.63,0.09 8.42,-0.08 5,-0.3 7.77,-3.07 7.68,-7.31 -0.09,-4.24 -2.62,-6.67 -7.6,-6.78 -8.26,-0.18 -16.54,0 -24.81,0 z"
         id="path29"
         style="fill:#abaaaa" />
      <path
         class="cls-5"
         d="m 1504.41,112.22 c 0,-9.24 0,-18.47 0,-27.71 0,-6.33 -3.3,-9.94 -8.76,-9.83 -5.21,0.1 -8.37,3.71 -8.39,9.82 q -0.06,27.93 0,55.87 c 0,6.07 3.21,9.71 8.37,9.8 5.47,0.09 8.73,-3.49 8.77,-9.79 0.05,-9.38 0.01,-18.77 0.01,-28.16 z"
         id="path30"
         style="fill:#abaaaa" />
    </g>
  </g>
</svg>
