<?xml version="1.0" encoding="UTF-8" standalone="no"?>
<!-- Created with Inkscape (http://www.inkscape.org/) -->

<svg
   width="23.700001cm"
   height="20cm"
   viewBox="0 0 237.00001 200"
   version="1.1"
   id="svg1"
   inkscape:version="1.3.1 (91b66b0783, 2023-11-16)"
   sodipodi:docname="logo-secureu.svg"
   xml:space="preserve"
   inkscape:export-filename="SECUREU-logo.png"
   inkscape:export-xdpi="96"
   inkscape:export-ydpi="96"
   xmlns:inkscape="http://www.inkscape.org/namespaces/inkscape"
   xmlns:sodipodi="http://sodipodi.sourceforge.net/DTD/sodipodi-0.dtd"
   xmlns="http://www.w3.org/2000/svg"
   xmlns:svg="http://www.w3.org/2000/svg"><sodipodi:namedview
     id="namedview1"
     pagecolor="#505050"
     bordercolor="#eeeeee"
     borderopacity="1"
     inkscape:showpageshadow="0"
     inkscape:pageopacity="0"
     inkscape:pagecheckerboard="0"
     inkscape:deskcolor="#505050"
     inkscape:document-units="mm"
     inkscape:zoom="0.87618584"
     inkscape:cx="401.1706"
     inkscape:cy="438.83384"
     inkscape:window-width="1920"
     inkscape:window-height="1017"
     inkscape:window-x="-8"
     inkscape:window-y="-8"
     inkscape:window-maximized="1"
     inkscape:current-layer="layer1" /><defs
     id="defs1" /><g
     inkscape:label="Layer 1"
     inkscape:groupmode="layer"
     id="layer1"><g
       id="g35-5-4-0"
       transform="matrix(0.11427221,0,0,0.11389999,4.2597917,41.507802)">
	<g
   id="g18-6-2-4">
		<ellipse
   class="st0"
   cx="1551.85"
   cy="513.53998"
   rx="419.87"
   ry="419.04001"
   id="ellipse1-8-4-0"
   style="fill:#243bd6" />
		<polygon
   class="st1"
   points="1573.06,230.38 1578.28,260.81 1550.96,246.44 1523.63,260.81 1528.85,230.38 1506.75,208.83 1537.3,204.4 1550.96,176.71 1564.62,204.4 1595.17,208.83 "
   id="polygon1-7-3-8"
   style="fill:#e6df48" />
		<polygon
   class="st1"
   points="1427.61,269.59 1432.83,300.01 1405.5,285.65 1378.18,300.01 1383.4,269.59 1361.29,248.04 1391.84,243.6 1405.5,215.92 1419.16,243.6 1449.71,248.04 "
   id="polygon2-1-3-8"
   style="fill:#e6df48" />
		<polygon
   class="st1"
   points="1278.99,523.19 1284.21,553.61 1256.89,539.25 1229.57,553.61 1234.78,523.19 1212.68,501.64 1243.23,497.2 1256.89,469.52 1270.55,497.2 1301.1,501.64 "
   id="polygon3-1-4-7"
   style="fill:#e6df48" />
		<polygon
   class="st1"
   points="1718.52,268.33 1723.73,298.75 1696.41,284.39 1669.09,298.75 1674.31,268.33 1652.2,246.78 1682.75,242.34 1696.41,214.66 1710.07,242.34 1740.62,246.78 "
   id="polygon4-7-1-5"
   style="fill:#e6df48" />
		<polygon
   class="st1"
   points="1827.92,375.83 1833.14,406.26 1805.82,391.89 1778.49,406.26 1783.71,375.83 1761.61,354.29 1792.16,349.85 1805.82,322.17 1819.48,349.85 1850.03,354.29 "
   id="polygon5-8-3-4"
   style="fill:#e6df48" />
		<polygon
   class="st1"
   points="1867.13,522.55 1872.35,552.98 1845.03,538.61 1817.7,552.98 1822.92,522.55 1800.82,501.01 1831.36,496.57 1845.03,468.89 1858.69,496.57 1889.24,501.01 "
   id="polygon6-1-0-7"
   style="fill:#e6df48" />
		<polygon
   class="st1"
   points="1827.29,669.9 1832.51,700.33 1805.18,685.96 1777.86,700.33 1783.08,669.9 1760.98,648.36 1791.52,643.92 1805.18,616.24 1818.85,643.92 1849.39,648.36 "
   id="polygon7-5-7-0"
   style="fill:#e6df48" />
		<polygon
   class="st1"
   points="1720.41,777.41 1725.63,807.84 1698.31,793.47 1670.99,807.84 1676.2,777.41 1654.1,755.87 1684.65,751.43 1698.31,723.75 1711.97,751.43 1742.52,755.87 "
   id="polygon8-2-0-5"
   style="fill:#e6df48" />
		<polygon
   class="st1"
   points="1572.43,815.36 1577.65,845.78 1550.32,831.42 1523,845.78 1528.22,815.36 1506.12,793.81 1536.66,789.37 1550.32,761.69 1563.99,789.37 1594.53,793.81 "
   id="polygon9-5-5-2"
   style="fill:#e6df48" />
		<polygon
   class="st1"
   points="1318.2,669.27 1323.42,699.7 1296.1,685.33 1268.77,699.7 1273.99,669.27 1251.89,647.72 1282.44,643.29 1296.1,615.6 1309.76,643.29 1340.31,647.72 "
   id="polygon10-0-8-0"
   style="fill:#e6df48" />
		<polygon
   class="st1"
   points="1426.98,778.05 1432.19,808.47 1404.87,794.11 1377.55,808.47 1382.77,778.05 1360.66,756.5 1391.21,752.06 1404.87,724.38 1418.53,752.06 1449.08,756.5 "
   id="polygon11-6-9-0"
   style="fill:#e6df48" />
		<polygon
   class="st1"
   points="1319.47,377.73 1324.68,408.16 1297.36,393.79 1270.04,408.16 1275.26,377.73 1253.15,356.19 1283.7,351.75 1297.36,324.07 1311.02,351.75 1341.57,356.19 "
   id="polygon12-0-0-2"
   style="fill:#e6df48" />
		<g
   id="g17-6-5-4">
			<g
   id="g16-0-5-8">
				<path
   class="st2"
   d="m 27.72,544.05 43.94,-4.27 c 2.64,14.75 8.01,25.58 16.1,32.5 8.09,6.92 18.99,10.38 32.73,10.38 14.54,0 25.5,-3.07 32.88,-9.23 7.38,-6.15 11.06,-13.35 11.06,-21.59 0,-5.29 -1.55,-9.79 -4.65,-13.5 -3.1,-3.71 -8.52,-6.95 -16.25,-9.69 -5.29,-1.83 -17.35,-5.08 -36.16,-9.77 -24.22,-6 -41.21,-13.37 -50.97,-22.12 -13.74,-12.31 -20.6,-27.32 -20.6,-45.02 0,-11.39 3.23,-22.05 9.69,-31.97 6.46,-9.92 15.77,-17.47 27.92,-22.66 12.16,-5.19 26.83,-7.79 44.02,-7.79 28.08,0 49.21,6.16 63.41,18.47 14.19,12.31 21.64,28.74 22.35,49.28 l -45.17,1.98 c -1.93,-11.49 -6.08,-19.76 -12.44,-24.79 -6.35,-5.04 -15.9,-7.56 -28.61,-7.56 -13.13,0 -23.41,2.7 -30.83,8.09 -4.78,3.46 -7.17,8.09 -7.17,13.89 0,5.29 2.24,9.82 6.71,13.58 5.7,4.78 19.54,9.77 41.51,14.95 21.97,5.19 38.22,10.55 48.75,16.1 10.53,5.55 18.77,13.12 24.72,22.73 5.95,9.61 8.93,21.5 8.93,35.63 0,12.82 -3.56,24.83 -10.68,36.01 -7.12,11.18 -17.19,19.51 -30.21,24.95 -13.02,5.44 -29.25,8.16 -48.68,8.16 -28.28,0 -50,-6.53 -65.16,-19.61 C 39.72,588.13 30.67,569.07 27.72,544.05 Z"
   id="path12-8-2-4"
   style="fill:#030201" />
				<path
   class="st2"
   d="m 247.6,616.84 v -223.7 h 165.87 v 37.84 h -120.7 v 49.59 h 112.32 v 37.69 H 292.77 v 60.89 h 124.98 v 37.69 z"
   id="path13-1-5-7"
   style="fill:#030201" />
				<path
   class="st2"
   d="m 599.19,534.58 43.8,13.89 c -6.71,24.42 -17.88,42.55 -33.5,54.4 -15.62,11.85 -35.43,17.78 -59.44,17.78 -29.71,0 -54.12,-10.14 -73.25,-30.44 -19.13,-20.3 -28.69,-48.05 -28.69,-83.24 0,-37.23 9.61,-66.15 28.84,-86.75 19.22,-20.6 44.51,-30.9 75.83,-30.9 27.37,0 49.6,8.09 66.69,24.26 10.17,9.56 17.8,23.3 22.88,41.2 l -44.71,10.68 C 595,453.86 589.48,444.71 581.09,438 c -8.4,-6.72 -18.6,-10.07 -30.6,-10.07 -16.58,0 -30.04,5.95 -40.37,17.86 -10.32,11.9 -15.48,31.18 -15.48,57.83 0,28.28 5.08,48.42 15.26,60.42 10.17,12.01 23.4,18.01 39.67,18.01 12.01,0 22.33,-3.81 30.98,-11.45 8.66,-7.63 14.87,-19.63 18.64,-36.02 z"
   id="path14-5-4-4"
   style="fill:#030201" />
				<path
   class="st2"
   d="m 681.44,393.14 h 45.17 v 121.15 c 0,19.23 0.55,31.69 1.68,37.39 1.93,9.15 6.53,16.51 13.81,22.05 7.27,5.54 17.22,8.32 29.83,8.32 12.82,0 22.49,-2.62 29,-7.86 6.51,-5.24 10.42,-11.67 11.75,-19.31 1.32,-7.63 1.98,-20.3 1.98,-37.99 V 393.14 h 45.17 v 117.5 c 0,26.85 -1.22,45.83 -3.66,56.91 -2.44,11.09 -6.94,20.44 -13.5,28.08 -6.56,7.63 -15.33,13.71 -26.32,18.23 -10.99,4.53 -25.32,6.79 -43.03,6.79 -21.36,0 -37.56,-2.46 -48.6,-7.4 -11.04,-4.94 -19.76,-11.34 -26.17,-19.23 -6.41,-7.88 -10.64,-16.15 -12.67,-24.79 -2.95,-12.82 -4.42,-31.74 -4.42,-56.77 V 393.14 Z"
   id="path15-5-9-3"
   style="fill:#030201" />
				<path
   class="st2"
   d="m 907.58,616.84 v -223.7 h 95.07 c 23.91,0 41.28,2.01 52.11,6.03 10.83,4.02 19.52,11.17 26.02,21.44 6.52,10.28 9.76,22.03 9.76,35.25 0,16.79 -4.93,30.65 -14.8,41.59 -9.87,10.93 -24.62,17.82 -44.25,20.67 9.76,5.69 17.82,11.95 24.19,18.77 6.35,6.81 14.93,18.92 25.71,36.32 l 27.32,43.64 h -54.03 l -32.65,-48.68 c -11.59,-17.4 -19.53,-28.36 -23.8,-32.89 -4.27,-4.52 -8.8,-7.63 -13.58,-9.31 -4.78,-1.68 -12.36,-2.51 -22.74,-2.51 h -9.15 v 93.38 z m 45.17,-129.1 h 33.42 c 21.67,0 35.2,-0.91 40.59,-2.74 5.39,-1.83 9.61,-4.99 12.66,-9.46 3.06,-4.48 4.58,-10.07 4.58,-16.79 0,-7.53 -2,-13.61 -6.03,-18.24 -4.02,-4.63 -9.68,-7.55 -17.01,-8.77 -3.66,-0.51 -14.65,-0.76 -32.96,-0.76 h -35.25 z"
   id="path16-8-1-7"
   style="fill:#030201" />
			</g>
		</g>
		<path
   class="st3"
   d="M 1385.91,614.68 V 406.12 h 124.38 v 35.28 h -82.28 v 46.24 h 74.45 v 35.14 h -74.45 v 56.76 h 86.26 v 35.14 z"
   id="path17-4-4-8"
   style="fill:#ffffff" />
		<path
   class="st3"
   d="m 1550.82,406.12 h 42.11 v 112.96 c 0,17.93 0.52,29.54 1.57,34.85 1.79,8.54 6.09,15.39 12.87,20.56 6.78,5.17 16.05,7.75 27.81,7.75 11.95,0 20.96,-2.44 27.03,-7.33 6.07,-4.88 9.72,-10.88 10.95,-18 1.23,-7.11 1.86,-18.92 1.86,-35.42 V 406.12 h 42.1 v 109.54 c 0,25.04 -1.14,42.73 -3.41,53.07 -2.28,10.34 -6.48,19.06 -12.59,26.17 -6.12,7.11 -14.3,12.78 -24.55,17 -10.24,4.22 -23.61,6.33 -40.12,6.33 -19.91,0 -35.02,-2.3 -45.31,-6.9 -10.29,-4.6 -18.42,-10.57 -24.4,-17.93 -5.98,-7.34 -9.92,-15.06 -11.81,-23.12 -2.75,-11.95 -4.12,-29.59 -4.12,-52.92 V 406.12 Z"
   id="path18-1-7-0"
   style="fill:#ffffff" />
	</g>
	
	
	
	
	
	
	
	
	
	
	
	
	
	
	
	
</g></g><style
     type="text/css"
     id="style1">
	.st0{fill:#243BD6;}
	.st1{fill:#E6DF48;}
	.st2{fill:#030201;}
	.st3{fill:#FFFFFF;}
</style></svg>
