<?xml version="1.0" encoding="UTF-8" standalone="no"?>
<!-- Created with Inkscape (http://www.inkscape.org/) -->

<svg
   width="23.700001cm"
   height="20cm"
   viewBox="0 0 237.00001 200"
   version="1.1"
   id="svg1"
   inkscape:version="1.3.1 (91b66b0783, 2023-11-16)"
   sodipodi:docname="logo-secureu-favicon.svg"
   xml:space="preserve"
   inkscape:export-filename="SECUREU-logo.png"
   inkscape:export-xdpi="96"
   inkscape:export-ydpi="96"
   xmlns:inkscape="http://www.inkscape.org/namespaces/inkscape"
   xmlns:sodipodi="http://sodipodi.sourceforge.net/DTD/sodipodi-0.dtd"
   xmlns="http://www.w3.org/2000/svg"
   xmlns:svg="http://www.w3.org/2000/svg"><sodipodi:namedview
     id="namedview1"
     pagecolor="#505050"
     bordercolor="#eeeeee"
     borderopacity="1"
     inkscape:showpageshadow="0"
     inkscape:pageopacity="0"
     inkscape:pagecheckerboard="0"
     inkscape:deskcolor="#505050"
     inkscape:document-units="mm"
     inkscape:zoom="0.87618584"
     inkscape:cx="447.96433"
     inkscape:cy="458.23612"
     inkscape:window-width="1920"
     inkscape:window-height="1017"
     inkscape:window-x="-8"
     inkscape:window-y="-8"
     inkscape:window-maximized="1"
     inkscape:current-layer="layer1" /><defs
     id="defs1" /><g
     inkscape:label="Layer 1"
     inkscape:groupmode="layer"
     id="layer1"><g
       id="g35-5-4-0"
       transform="matrix(0.11054416,0,0,0.11018409,7.9867978,43.416065)">
	<g
   id="g18-6-2-4"
   transform="matrix(2.1543475,0,0,2.1543475,-2343.5041,-592.80359)">
		<ellipse
   class="st0"
   cx="1551.85"
   cy="513.53998"
   rx="419.87"
   ry="419.04001"
   id="ellipse1-8-4-0"
   style="fill:#243bd6" />
		<polygon
   class="st1"
   points="1573.06,230.38 1578.28,260.81 1550.96,246.44 1523.63,260.81 1528.85,230.38 1506.75,208.83 1537.3,204.4 1550.96,176.71 1564.62,204.4 1595.17,208.83 "
   id="polygon1-7-3-8"
   style="fill:#e6df48" />
		<polygon
   class="st1"
   points="1427.61,269.59 1432.83,300.01 1405.5,285.65 1378.18,300.01 1383.4,269.59 1361.29,248.04 1391.84,243.6 1405.5,215.92 1419.16,243.6 1449.71,248.04 "
   id="polygon2-1-3-8"
   style="fill:#e6df48" />
		<polygon
   class="st1"
   points="1278.99,523.19 1284.21,553.61 1256.89,539.25 1229.57,553.61 1234.78,523.19 1212.68,501.64 1243.23,497.2 1256.89,469.52 1270.55,497.2 1301.1,501.64 "
   id="polygon3-1-4-7"
   style="fill:#e6df48" />
		<polygon
   class="st1"
   points="1718.52,268.33 1723.73,298.75 1696.41,284.39 1669.09,298.75 1674.31,268.33 1652.2,246.78 1682.75,242.34 1696.41,214.66 1710.07,242.34 1740.62,246.78 "
   id="polygon4-7-1-5"
   style="fill:#e6df48" />
		<polygon
   class="st1"
   points="1827.92,375.83 1833.14,406.26 1805.82,391.89 1778.49,406.26 1783.71,375.83 1761.61,354.29 1792.16,349.85 1805.82,322.17 1819.48,349.85 1850.03,354.29 "
   id="polygon5-8-3-4"
   style="fill:#e6df48" />
		<polygon
   class="st1"
   points="1867.13,522.55 1872.35,552.98 1845.03,538.61 1817.7,552.98 1822.92,522.55 1800.82,501.01 1831.36,496.57 1845.03,468.89 1858.69,496.57 1889.24,501.01 "
   id="polygon6-1-0-7"
   style="fill:#e6df48" />
		<polygon
   class="st1"
   points="1827.29,669.9 1832.51,700.33 1805.18,685.96 1777.86,700.33 1783.08,669.9 1760.98,648.36 1791.52,643.92 1805.18,616.24 1818.85,643.92 1849.39,648.36 "
   id="polygon7-5-7-0"
   style="fill:#e6df48" />
		<polygon
   class="st1"
   points="1720.41,777.41 1725.63,807.84 1698.31,793.47 1670.99,807.84 1676.2,777.41 1654.1,755.87 1684.65,751.43 1698.31,723.75 1711.97,751.43 1742.52,755.87 "
   id="polygon8-2-0-5"
   style="fill:#e6df48" />
		<polygon
   class="st1"
   points="1572.43,815.36 1577.65,845.78 1550.32,831.42 1523,845.78 1528.22,815.36 1506.12,793.81 1536.66,789.37 1550.32,761.69 1563.99,789.37 1594.53,793.81 "
   id="polygon9-5-5-2"
   style="fill:#e6df48" />
		<polygon
   class="st1"
   points="1318.2,669.27 1323.42,699.7 1296.1,685.33 1268.77,699.7 1273.99,669.27 1251.89,647.72 1282.44,643.29 1296.1,615.6 1309.76,643.29 1340.31,647.72 "
   id="polygon10-0-8-0"
   style="fill:#e6df48" />
		<polygon
   class="st1"
   points="1426.98,778.05 1432.19,808.47 1404.87,794.11 1377.55,808.47 1382.77,778.05 1360.66,756.5 1391.21,752.06 1404.87,724.38 1418.53,752.06 1449.08,756.5 "
   id="polygon11-6-9-0"
   style="fill:#e6df48" />
		<polygon
   class="st1"
   points="1319.47,377.73 1324.68,408.16 1297.36,393.79 1270.04,408.16 1275.26,377.73 1253.15,356.19 1283.7,351.75 1297.36,324.07 1311.02,351.75 1341.57,356.19 "
   id="polygon12-0-0-2"
   style="fill:#e6df48" />
		
		
		
	</g>
	
	
	
	
	
	
	
	
	
	
	
	
	
	
	
	
</g><text
       xml:space="preserve"
       style="font-style:normal;font-variant:normal;font-weight:bold;font-stretch:normal;font-size:75.618px;line-height:0;font-family:Arial;-inkscape-font-specification:'Arial, Bold';font-variant-ligatures:normal;font-variant-caps:normal;font-variant-numeric:normal;font-variant-east-asian:normal;opacity:1;fill:#f9f9f9;fill-opacity:1;stroke:#ffffff;stroke-width:1.94938;stroke-linecap:square;stroke-linejoin:bevel;stroke-miterlimit:14;stroke-opacity:0"
       x="69.50071"
       y="129.17825"
       id="text1"><tspan
         sodipodi:role="line"
         id="tspan1"
         style="font-style:normal;font-variant:normal;font-weight:bold;font-stretch:normal;font-size:75.618px;font-family:Arial;-inkscape-font-specification:'Arial, Bold';font-variant-ligatures:normal;font-variant-caps:normal;font-variant-numeric:normal;font-variant-east-asian:normal;fill:#f9f9f9;fill-opacity:1;stroke-width:1.94938"
         x="69.50071"
         y="129.17825">RF</tspan></text></g><style
     type="text/css"
     id="style1">
	.st0{fill:#243BD6;}
	.st1{fill:#E6DF48;}
	.st2{fill:#030201;}
	.st3{fill:#FFFFFF;}
</style></svg>
